<?xml version="1.0" encoding="utf-8"?>
<!-- Generator: Adobe Illustrator 19.2.1, SVG Export Plug-In . SVG Version: 6.00 Build 0)  -->
<svg version="1.1" id="layer" xmlns="http://www.w3.org/2000/svg" xmlns:xlink="http://www.w3.org/1999/xlink" x="0px" y="0px"
	 viewBox="0 0 652 652" style="enable-background:new 0 0 652 652;" xml:space="preserve">
<style type="text/css">
	.st0{fill:#0A0204;}
	.st1{fill:#FFFFFF;}
	.st2{fill:#ED1D24;}
</style>
<rect x="-117.3" y="72.1" width="875" height="500"/>
<g>
	<path class="st0" d="M666.2,321.6c0,87.1-157,157.7-350.7,157.7c-193.7,0-350.7-70.6-350.7-157.7c0-87.1,157-157.6,350.7-157.6
		C509.2,163.9,666.2,234.5,666.2,321.6"/>
	<path class="st1" d="M315.8,158.2c-195.9,0-354.8,73-354.8,163c0,90,158.8,163,354.8,163c195.9,0,354.7-73,354.7-163
		C670.5,231.2,511.7,158.2,315.8,158.2 M315.8,445.8c-182.9,0-331.2-55.8-331.2-124.7c0-68.8,148.3-124.6,331.2-124.6
		c164.8,0,301.4,45.3,326.9,104.7c0.1,0.2,0.2,0.5,0.3,0.7c0.1,0.2,0.2,0.4,0.3,0.7c1.8,4,2.9,8.1,3.3,12.2c0,0.1,0,0.2,0,0.4
		c0,0.9,0.2,1.7,0.2,2.5c0,0.1,0,0.2,0,0.3c0.1,1.1,0.2,2.2,0.2,3.3C646.9,390,498.6,445.8,315.8,445.8"/>
	<path class="st1" d="M182.8,391.4H73.6l31.7-135.6H195h4.9c5.5,0,9.9,0.1,13.2,0.3c3.3,0.2,6.8,0.7,10.2,1.6c1.7,0.3,3.7,0.9,6,1.8
		c3.5,1.5,6.2,3.5,8.2,6c1.4,1.5,2.5,3.7,3.5,6.5c0.9,2.8,1.4,6.2,1.4,10.2c0,5-0.7,10.2-2.2,15.5c-1.5,5.3-3.5,9.8-6.2,13.6
		c-2.1,3.2-5.1,5.9-9,8.1c-3.2,1.8-6.6,3.1-10.4,4.1c-3.8,1-7.8,1.4-12,1.4c5.3,0.6,9,1.2,11.3,1.6c2.3,0.5,4.3,1.2,6,2.2
		c2.8,1.5,5,3.6,6.7,6.3c2.2,3.7,3.3,8.4,3.3,14c0,5.6-0.9,11.3-2.7,16.9c-1.8,5.6-4.5,10.3-8,14c-1.3,1.4-2.5,2.6-3.7,3.5
		c-1.2,0.9-2.9,1.9-5,3.1c-4.2,2.2-8.4,3.6-12.7,4.1C193.6,391.1,188.6,391.4,182.8,391.4 M140.2,337.5l-5.3,23.2h24
		c4,0,6.9-0.4,8.8-1.1c2.8-1.2,5-3.3,6.5-6.5c0.4-0.9,0.9-2,1.2-3.4c0.3-1.3,0.5-2.8,0.5-4.3c0-3.3-1-5.4-2.9-6.4
		c-1.9-1-4.6-1.4-8.1-1.4H140.2z M150.7,292.9l-5.3,21.7h25.2c3.6,0,6.4-0.4,8.5-1.3c2-0.9,3.8-2.9,5.2-6c0.3-0.9,0.7-2.1,0.9-3.6
		c0.3-1.5,0.4-2.4,0.4-2.8c0-0.8-0.1-1.6-0.3-2.5c-0.2-0.9-0.6-1.8-1.3-2.9c-0.7-1-2.1-1.7-4-2.1c-2-0.4-4.7-0.6-8.2-0.6H150.7z"/>
	<polygon class="st1" points="352.5,255.8 406.7,255.8 385.8,345.1 437.1,345.1 426.3,391.4 321.2,391.4 	"/>
	<polygon class="st1" points="448.7,255.8 568.8,255.8 558,301.2 525.2,301.2 504.2,391.4 450.1,391.4 471.1,301.2 438,301.2 	"/>
	<polygon class="st1" points="261.9,302.1 315.4,302.1 294.5,391.4 241.2,391.4 	"/>
	<polygon class="st2" points="264.8,290 272.7,255.8 326.2,255.8 317.4,289.9 	"/>
</g>
</svg>
