<?xml version="1.0" encoding="utf-8"?>
<!-- Generator: Adobe Illustrator 19.2.1, SVG Export Plug-In . SVG Version: 6.00 Build 0)  -->
<svg version="1.1" xmlns="http://www.w3.org/2000/svg" xmlns:xlink="http://www.w3.org/1999/xlink" x="0px" y="0px"
	 viewBox="0 0 652 652" style="enable-background:new 0 0 652 652;" xml:space="preserve">
<style type="text/css">
	.st0{fill:#0C0407;}
	.st1{fill-rule:evenodd;clip-rule:evenodd;fill:#ED1C24;}
	.st2{fill-rule:evenodd;clip-rule:evenodd;fill:#231F20;}
	.st3{fill:none;stroke:#231F20;stroke-width:5.9055;stroke-miterlimit:22.926;}
</style>
<g id="Layer_1">
	<g>
		<path class="st0" d="M240,670.9l1.6-0.1c0.1,0.6,0.3,1.2,0.5,1.6c0.3,0.4,0.7,0.7,1.3,1c0.6,0.3,1.2,0.4,2,0.4
			c0.7,0,1.2-0.1,1.7-0.3s0.9-0.5,1.1-0.8s0.4-0.7,0.4-1.1c0-0.4-0.1-0.8-0.4-1.1s-0.6-0.6-1.2-0.8c-0.3-0.1-1.1-0.3-2.3-0.6
			s-2-0.6-2.5-0.8c-0.6-0.3-1.1-0.7-1.4-1.2c-0.3-0.5-0.5-1-0.5-1.6c0-0.7,0.2-1.3,0.6-1.8s0.9-1,1.6-1.3s1.5-0.4,2.4-0.4
			c1,0,1.8,0.2,2.5,0.5c0.7,0.3,1.3,0.8,1.7,1.4s0.6,1.3,0.6,2l-1.6,0.1c-0.1-0.8-0.4-1.4-0.9-1.8c-0.5-0.4-1.3-0.6-2.2-0.6
			c-1,0-1.8,0.2-2.3,0.6c-0.5,0.4-0.7,0.8-0.7,1.4c0,0.5,0.2,0.8,0.5,1.1c0.3,0.3,1.2,0.6,2.6,0.9c1.4,0.3,2.3,0.6,2.9,0.8
			c0.8,0.3,1.3,0.8,1.7,1.3s0.5,1.1,0.5,1.8c0,0.7-0.2,1.3-0.6,1.9c-0.4,0.6-1,1.1-1.7,1.4c-0.7,0.3-1.6,0.5-2.5,0.5
			c-1.2,0-2.1-0.2-2.9-0.5c-0.8-0.3-1.4-0.9-1.9-1.5C240.3,672.6,240,671.8,240,670.9z"/>
		<path class="st0" d="M258.8,672.1l1.6,0.2c-0.3,1-0.7,1.7-1.4,2.2s-1.6,0.8-2.7,0.8c-1.4,0-2.4-0.4-3.2-1.3
			c-0.8-0.8-1.2-2-1.2-3.5c0-1.6,0.4-2.8,1.2-3.7s1.9-1.3,3.1-1.3c1.2,0,2.3,0.4,3.1,1.3s1.2,2,1.2,3.6c0,0.1,0,0.2,0,0.4h-7
			c0.1,1,0.3,1.8,0.9,2.4s1.2,0.8,2,0.8c0.6,0,1.1-0.2,1.5-0.5S258.6,672.7,258.8,672.1z M253.6,669.5h5.2c-0.1-0.8-0.3-1.4-0.6-1.8
			c-0.5-0.6-1.2-0.9-2-0.9c-0.7,0-1.3,0.2-1.8,0.7S253.6,668.7,253.6,669.5z"/>
		<path class="st0" d="M268.8,672.1l1.6,0.2c-0.3,1-0.7,1.7-1.4,2.2s-1.6,0.8-2.7,0.8c-1.4,0-2.4-0.4-3.2-1.3
			c-0.8-0.8-1.2-2-1.2-3.5c0-1.6,0.4-2.8,1.2-3.7s1.9-1.3,3.1-1.3c1.2,0,2.3,0.4,3.1,1.3s1.2,2,1.2,3.6c0,0.1,0,0.2,0,0.4h-7
			c0.1,1,0.3,1.8,0.9,2.4s1.2,0.8,2,0.8c0.6,0,1.1-0.2,1.5-0.5S268.6,672.7,268.8,672.1z M263.6,669.5h5.2c-0.1-0.8-0.3-1.4-0.6-1.8
			c-0.5-0.6-1.2-0.9-2-0.9c-0.7,0-1.3,0.2-1.8,0.7S263.7,668.7,263.6,669.5z"/>
		<path class="st0" d="M272.4,675.1v-12.9h1.6v7.3l3.7-3.8h2l-3.6,3.5l3.9,5.9h-2l-3.1-4.8l-1.1,1.1v3.7H272.4z"/>
		<path class="st0" d="M285.3,675.1l-5-12.9h1.8l3.3,9.4c0.3,0.8,0.5,1.5,0.7,2.1c0.2-0.7,0.4-1.4,0.7-2.1l3.5-9.4h1.7l-5,12.9
			H285.3z"/>
		<path class="st0" d="M298.8,672.1l1.6,0.2c-0.3,1-0.7,1.7-1.4,2.2s-1.6,0.8-2.7,0.8c-1.4,0-2.4-0.4-3.2-1.3
			c-0.8-0.8-1.2-2-1.2-3.5c0-1.6,0.4-2.8,1.2-3.7s1.9-1.3,3.1-1.3c1.2,0,2.3,0.4,3.1,1.3s1.2,2,1.2,3.6c0,0.1,0,0.2,0,0.4h-7
			c0.1,1,0.3,1.8,0.9,2.4s1.2,0.8,2,0.8c0.6,0,1.1-0.2,1.5-0.5S298.6,672.7,298.8,672.1z M293.6,669.5h5.2c-0.1-0.8-0.3-1.4-0.6-1.8
			c-0.5-0.6-1.2-0.9-2-0.9c-0.7,0-1.3,0.2-1.8,0.7S293.7,668.7,293.6,669.5z"/>
		<path class="st0" d="M308.5,671.7l1.6,0.2c-0.2,1.1-0.6,1.9-1.3,2.5c-0.7,0.6-1.6,0.9-2.6,0.9c-1.3,0-2.3-0.4-3.1-1.3
			c-0.8-0.8-1.2-2-1.2-3.6c0-1,0.2-1.9,0.5-2.6s0.8-1.3,1.5-1.7c0.7-0.4,1.4-0.6,2.2-0.6c1,0,1.8,0.3,2.5,0.8s1.1,1.2,1.2,2.2
			l-1.5,0.2c-0.1-0.6-0.4-1.1-0.8-1.4s-0.8-0.5-1.3-0.5c-0.8,0-1.4,0.3-1.9,0.9c-0.5,0.6-0.7,1.5-0.7,2.7c0,1.3,0.2,2.2,0.7,2.7
			s1.1,0.9,1.9,0.9c0.6,0,1.1-0.2,1.6-0.6S308.4,672.4,308.5,671.7z"/>
		<path class="st0" d="M314.9,673.7l0.2,1.4c-0.4,0.1-0.8,0.1-1.2,0.1c-0.6,0-1-0.1-1.3-0.3s-0.5-0.4-0.7-0.7s-0.2-0.9-0.2-1.9V667
			h-1.2v-1.2h1.2v-2.3l1.6-0.9v3.3h1.6v1.2h-1.6v5.5c0,0.5,0,0.7,0.1,0.9s0.1,0.2,0.3,0.3c0.1,0.1,0.3,0.1,0.5,0.1
			C314.4,673.7,314.6,673.7,314.9,673.7z"/>
		<path class="st0" d="M315.9,670.4c0-1.7,0.5-3,1.4-3.8c0.8-0.7,1.8-1,2.9-1c1.3,0,2.3,0.4,3.1,1.3s1.2,2,1.2,3.5
			c0,1.2-0.2,2.1-0.5,2.8c-0.4,0.7-0.9,1.2-1.6,1.6s-1.4,0.6-2.3,0.6c-1.3,0-2.4-0.4-3.2-1.3C316.3,673.2,315.9,672,315.9,670.4z
			 M317.5,670.4c0,1.2,0.3,2.1,0.8,2.7c0.5,0.6,1.2,0.9,2,0.9c0.8,0,1.4-0.3,2-0.9s0.8-1.5,0.8-2.7c0-1.2-0.3-2-0.8-2.6
			c-0.5-0.6-1.2-0.9-2-0.9c-0.8,0-1.4,0.3-2,0.9S317.5,669.2,317.5,670.4z"/>
		<path class="st0" d="M326.4,675.1v-9.3h1.4v1.4c0.4-0.7,0.7-1.1,1-1.3c0.3-0.2,0.6-0.3,1-0.3c0.5,0,1.1,0.2,1.6,0.5l-0.5,1.5
			c-0.4-0.2-0.8-0.3-1.2-0.3c-0.3,0-0.7,0.1-0.9,0.3s-0.5,0.5-0.6,0.9c-0.2,0.6-0.3,1.2-0.3,1.8v4.9H326.4z"/>
		<path class="st0" d="M332.6,675.1v-12.9h1.7v11.4h6.3v1.5H332.6z"/>
		<path class="st0" d="M341.9,670.4c0-1.7,0.5-3,1.4-3.8c0.8-0.7,1.8-1,2.9-1c1.3,0,2.3,0.4,3.1,1.3s1.2,2,1.2,3.5
			c0,1.2-0.2,2.1-0.5,2.8c-0.4,0.7-0.9,1.2-1.6,1.6s-1.4,0.6-2.3,0.6c-1.3,0-2.4-0.4-3.2-1.3C342.3,673.2,341.9,672,341.9,670.4z
			 M343.5,670.4c0,1.2,0.3,2.1,0.8,2.7c0.5,0.6,1.2,0.9,2,0.9c0.8,0,1.4-0.3,2-0.9s0.8-1.5,0.8-2.7c0-1.2-0.3-2-0.8-2.6
			c-0.5-0.6-1.2-0.9-2-0.9c-0.8,0-1.4,0.3-2,0.9S343.5,669.2,343.5,670.4z"/>
		<path class="st0" d="M352.2,675.8l1.5,0.2c0.1,0.5,0.2,0.8,0.5,1c0.4,0.3,0.9,0.4,1.6,0.4c0.7,0,1.3-0.1,1.7-0.4s0.7-0.7,0.8-1.2
			c0.1-0.3,0.1-1,0.1-2c-0.7,0.8-1.6,1.2-2.6,1.2c-1.3,0-2.3-0.5-3-1.4s-1.1-2-1.1-3.3c0-0.9,0.2-1.7,0.5-2.5
			c0.3-0.8,0.8-1.3,1.4-1.7s1.3-0.6,2.2-0.6c1.1,0,2,0.4,2.7,1.3v-1.1h1.5v8.1c0,1.5-0.1,2.5-0.4,3.1c-0.3,0.6-0.8,1.1-1.4,1.4
			c-0.6,0.4-1.4,0.5-2.4,0.5c-1.1,0-2-0.3-2.7-0.8C352.5,677.6,352.2,676.9,352.2,675.8z M353.5,670.2c0,1.2,0.2,2.1,0.7,2.7
			s1.1,0.8,1.8,0.8c0.7,0,1.3-0.3,1.8-0.8s0.7-1.4,0.7-2.6c0-1.1-0.3-2-0.8-2.6c-0.5-0.6-1.1-0.9-1.8-0.9c-0.7,0-1.3,0.3-1.8,0.9
			C353.7,668.3,353.5,669.1,353.5,670.2z"/>
		<path class="st0" d="M361.9,670.4c0-1.7,0.5-3,1.4-3.8c0.8-0.7,1.8-1,2.9-1c1.3,0,2.3,0.4,3.1,1.3s1.2,2,1.2,3.5
			c0,1.2-0.2,2.1-0.5,2.8c-0.4,0.7-0.9,1.2-1.6,1.6s-1.4,0.6-2.3,0.6c-1.3,0-2.4-0.4-3.2-1.3C362.3,673.2,361.9,672,361.9,670.4z
			 M363.5,670.4c0,1.2,0.3,2.1,0.8,2.7c0.5,0.6,1.2,0.9,2,0.9c0.8,0,1.4-0.3,2-0.9s0.8-1.5,0.8-2.7c0-1.2-0.3-2-0.8-2.6
			c-0.5-0.6-1.2-0.9-2-0.9c-0.8,0-1.4,0.3-2,0.9S363.5,669.2,363.5,670.4z"/>
		<path class="st0" d="M372.9,675.1v-1.8h1.8v1.8H372.9z"/>
		<path class="st0" d="M386.9,670.6l1.7,0.4c-0.4,1.4-1,2.5-1.9,3.2s-2.1,1.1-3.4,1.1c-1.4,0-2.5-0.3-3.4-0.8
			c-0.9-0.6-1.5-1.4-2-2.5c-0.5-1.1-0.7-2.2-0.7-3.5c0-1.3,0.3-2.5,0.8-3.5c0.5-1,1.2-1.8,2.2-2.3c0.9-0.5,2-0.8,3.1-0.8
			c1.3,0,2.4,0.3,3.3,1s1.5,1.6,1.8,2.8l-1.7,0.4c-0.3-0.9-0.7-1.6-1.3-2s-1.3-0.6-2.1-0.6c-1,0-1.8,0.2-2.5,0.7
			c-0.7,0.5-1.1,1.1-1.4,1.9c-0.3,0.8-0.4,1.6-0.4,2.5c0,1.1,0.2,2.1,0.5,2.9c0.3,0.8,0.8,1.4,1.5,1.8s1.4,0.6,2.2,0.6
			c1,0,1.8-0.3,2.4-0.8S386.7,671.6,386.9,670.6z"/>
		<path class="st0" d="M389.9,670.4c0-1.7,0.5-3,1.4-3.8c0.8-0.7,1.8-1,2.9-1c1.3,0,2.3,0.4,3.1,1.3s1.2,2,1.2,3.5
			c0,1.2-0.2,2.1-0.5,2.8c-0.4,0.7-0.9,1.2-1.6,1.6s-1.4,0.6-2.3,0.6c-1.3,0-2.4-0.4-3.2-1.3C390.3,673.2,389.9,672,389.9,670.4z
			 M391.5,670.4c0,1.2,0.3,2.1,0.8,2.7c0.5,0.6,1.2,0.9,2,0.9c0.8,0,1.4-0.3,2-0.9s0.8-1.5,0.8-2.7c0-1.2-0.3-2-0.8-2.6
			c-0.5-0.6-1.2-0.9-2-0.9c-0.8,0-1.4,0.3-2,0.9S391.5,669.2,391.5,670.4z"/>
		<path class="st0" d="M400.5,675.1v-9.3h1.4v1.3c0.3-0.5,0.7-0.8,1.2-1.1s1-0.4,1.7-0.4c0.7,0,1.3,0.1,1.7,0.4
			c0.4,0.3,0.8,0.7,0.9,1.2c0.7-1.1,1.7-1.6,2.9-1.6c0.9,0,1.6,0.3,2.1,0.8s0.7,1.3,0.7,2.4v6.4h-1.6v-5.9c0-0.6-0.1-1.1-0.2-1.4
			c-0.1-0.3-0.3-0.5-0.6-0.7s-0.6-0.3-0.9-0.3c-0.7,0-1.2,0.2-1.6,0.7c-0.4,0.4-0.7,1.1-0.7,2.1v5.4h-1.6V669c0-0.7-0.1-1.2-0.4-1.6
			s-0.7-0.5-1.3-0.5c-0.4,0-0.9,0.1-1.2,0.4c-0.4,0.2-0.7,0.6-0.8,1s-0.3,1.1-0.3,2v4.8H400.5z"/>
	</g>
</g>
<g id="Layer_2">
	<g>
		<path class="st1" d="M424.1,291.8H551l-73.5,127.6c0,0-12.1,25.6-29.2,32c-4.7,1.8-8.8,8.1-60.8,6.3c-5.4-0.2-118.6-1-118.6-1
			s-33.9,2.8-51.5-8.4c-9.9-6.3-26.5-30.6-33.4-45.5c-6.4-13.6-68.3-120.3-68.3-120.3s-14.8-25.8-11.6-41.3
			c2.5-11.9,4.8-22.9,13.5-35.3c3.6-5.1,71.1-123,71.1-123c0,0,18.1-30,26.1-34.9c8-4.9,19.7-11.7,38-11.7h159.9
			c0,0,45.5,0.1,65,37.3c16.8,32.1,72.7,130,72.7,130l-125.2-0.6c0,0-39.6-72.1-115.8-51.4c-13.3,3.6-42.4,20.2-45.5,27.9
			c-2,5.1-2.1,19,11.7,20.2c13.8,1.2,36.5,0,36.5,0s22.4,0.9,24.5,20.5c1.1,10.4,0,49.4,0,49.4s-0.3,22.1-28.5,21.8
			c-9.4-0.1-38,0-38,0s-12.6,5.5-10.4,14.7c2.1,9.2,22.4,36.8,71.8,40.2c17.1,1.2,58.6-2.2,89.2-48.2
			C423.3,293.7,424.1,291.8,424.1,291.8"/>
		<polyline class="st2" points="15.4,506.5 77.6,506.5 77.6,525.5 38,525.5 38,547.2 77.6,547.2 77.6,566.4 38,566.4 38,592.9 
			77.6,592.9 77.6,612.1 15.4,612.1 		"/>
		<polygon class="st3" points="15.4,506.5 77.6,506.5 77.6,525.5 38,525.5 38,547.2 77.6,547.2 77.6,566.4 38,566.4 38,592.9 
			77.6,592.9 77.6,612.1 15.4,612.1 		"/>
		<path class="st2" d="M101.8,584.5c3.2,7.8,10.8,12.6,19.5,12.6c10.9,0,17.1-5.6,17.1-13.9c0-9.3-8.7-11.2-23.2-18.8
			c-15.5-8.1-24.5-15.8-24.5-30.6c0-16.7,14.3-29.8,37.2-29.8c12.7,0,21.7,4.3,28.8,13.9l-13.3,12.7c-3.2-6.2-8.6-9.2-15.8-9.2
			c-9.2,0-14.9,5.2-14.9,12.1c0,9.7,9.4,12.1,21.3,17.4c17.7,8.1,26.3,18.2,26.3,31.5c0,19.1-13.7,32.5-37.4,32.5
			c-16.4,0-28.1-5.9-33.7-16.2"/>
		<path class="st3" d="M101.8,584.5c3.2,7.8,10.8,12.6,19.5,12.6c10.9,0,17.1-5.6,17.1-13.9c0-9.3-8.7-11.2-23.2-18.8
			c-15.5-8.1-24.5-15.8-24.5-30.6c0-16.7,14.3-29.8,37.2-29.8c12.7,0,21.7,4.3,28.8,13.9l-13.3,12.7c-3.2-6.2-8.6-9.2-15.8-9.2
			c-9.2,0-14.9,5.2-14.9,12.1c0,9.7,9.4,12.1,21.3,17.4c17.7,8.1,26.3,18.2,26.3,31.5c0,19.1-13.7,32.5-37.4,32.5
			c-16.4,0-28.1-5.9-33.7-16.2L101.8,584.5z"/>
		<path class="st2" d="M230.6,522.1c-22.6,0-36.9,14.6-36.9,37.2c0,21.8,12.8,36.2,34.7,36.2c12.1,0,22.6-4,31.6-12.3l-0.1,23.2
			c-9.6,5.6-20.1,8.4-31.8,8.4c-34.1,0-57.6-23.8-57.6-55.5c0-31.2,22.9-55.4,58-55.4c13.3,0,23.8,3.2,32.3,7.4l-0.7,22.6
			C252.3,527,243.1,522.1,230.6,522.1"/>
		<path class="st3" d="M230.6,522.1c-22.6,0-36.9,14.6-36.9,37.2c0,21.8,12.8,36.2,34.7,36.2c12.1,0,22.6-4,31.6-12.3l-0.1,23.2
			c-9.6,5.6-20.1,8.4-31.8,8.4c-34.1,0-57.6-23.8-57.6-55.5c0-31.2,22.9-55.4,58-55.4c13.3,0,23.8,3.2,32.3,7.4l-0.7,22.6
			C252.3,527,243.1,522.1,230.6,522.1z"/>
		<path class="st2" d="M362.3,559.5c0-19.5-13.7-35.5-33.1-35.5c-19.6,0-33.2,16-33.2,35.5c0,19.6,13,35.3,33.2,35.3
			C348.9,594.8,362.3,579.1,362.3,559.5 M369.1,598.6c-10.9,10.5-25.1,16.2-39.9,16.2c-13,0-25.7-4.6-35.9-12.7
			c-13.3-10.6-20.5-25.8-20.5-42.7c0-15.1,5.6-28.7,16.4-39.1c10.6-10.3,25.3-16.2,40-16.2c14.8,0,29.2,5.9,39.9,16.2
			c10.8,10.5,16.4,24.2,16.4,39.1C385.5,574.6,379.7,588.4,369.1,598.6"/>
		<path class="st3" d="M369.1,598.6c-10.9,10.5-25.1,16.2-39.9,16.2c-13,0-25.7-4.6-35.9-12.7c-13.3-10.6-20.5-25.8-20.5-42.7
			c0-15.1,5.6-28.7,16.4-39.1c10.6-10.3,25.3-16.2,40-16.2c14.8,0,29.2,5.9,39.9,16.2c10.8,10.5,16.4,24.2,16.4,39.1
			C385.5,574.6,379.7,588.4,369.1,598.6z"/>
		<path class="st3" d="M362.3,559.5c0-19.5-13.7-35.5-33.1-35.5c-19.6,0-33.2,16-33.2,35.5c0,19.6,13,35.3,33.2,35.3
			C348.9,594.8,362.3,579.1,362.3,559.5z"/>
		<path class="st2" d="M426.8,551.5c14,0,22.4-1.2,22.4-13.4c0-12.3-8.1-14.3-22.4-14.3h-3.4v27.7 M451.2,612.1l-27.8-49.3v49.3
			h-22.6V506.5h32.3c25.7,0,38.4,10,38.4,30c0,14.6-9.7,25.8-23.5,27.6l29.1,48H451.2z"/>
		<path class="st3" d="M451.2,612.1l-27.8-49.3v49.3h-22.6V506.5h32.3c25.7,0,38.4,10,38.4,30c0,14.6-9.7,25.8-23.5,27.6l29.1,48
			H451.2z"/>
		<path class="st3" d="M426.8,551.5c14,0,22.4-1.2,22.4-13.4c0-12.3-8.1-14.3-22.4-14.3h-3.4v27.7H426.8z"/>
		<polyline class="st2" points="532,612.1 509.4,612.1 509.4,525.7 483.6,525.7 483.6,506.5 558,506.5 558,525.7 532,525.7 		"/>
		<polygon class="st3" points="532,612.1 509.4,612.1 509.4,525.7 483.6,525.7 483.6,506.5 558,506.5 558,525.7 532,525.7 		"/>
		<path class="st2" d="M580.6,584.5c3.2,7.8,10.8,12.6,19.5,12.6c10.9,0,17.1-5.6,17.1-13.9c0-9.3-8.7-11.2-23.2-18.8
			c-15.5-8.1-24.5-15.8-24.5-30.6c0-16.7,14.3-29.8,37.2-29.8c12.7,0,21.7,4.3,28.8,13.9l-13.3,12.7c-3.2-6.2-8.6-9.2-15.8-9.2
			c-9.2,0-14.9,5.2-14.9,12.1c0,9.7,9.4,12.1,21.3,17.4c17.7,8.1,26.3,18.2,26.3,31.5c0,19.1-13.7,32.5-37.4,32.5
			c-16.4,0-28.1-5.9-33.7-16.2"/>
		<path class="st3" d="M580.6,584.5c3.2,7.8,10.8,12.6,19.5,12.6c10.9,0,17.1-5.6,17.1-13.9c0-9.3-8.7-11.2-23.2-18.8
			c-15.5-8.1-24.5-15.8-24.5-30.6c0-16.7,14.3-29.8,37.2-29.8c12.7,0,21.7,4.3,28.8,13.9l-13.3,12.7c-3.2-6.2-8.6-9.2-15.8-9.2
			c-9.2,0-14.9,5.2-14.9,12.1c0,9.7,9.4,12.1,21.3,17.4c17.7,8.1,26.3,18.2,26.3,31.5c0,19.1-13.7,32.5-37.4,32.5
			c-16.4,0-28.1-5.9-33.7-16.2L580.6,584.5z"/>
	</g>
</g>
</svg>
