<?xml version="1.0" encoding="utf-8"?>
<!-- Generator: Adobe Illustrator 26.0.3, SVG Export Plug-In . SVG Version: 6.00 Build 0)  -->
<svg version="1.0" id="Layer_1" xmlns="http://www.w3.org/2000/svg" xmlns:xlink="http://www.w3.org/1999/xlink" x="0px" y="0px"
	 viewBox="0 0 348.1 272" style="enable-background:new 0 0 348.1 272;" xml:space="preserve">
<style type="text/css">
	.st0{clip-path:url(#SVGID_00000043434864599248073060000005310513987512117130_);}
	.st1{fill:#004071;}
	.st2{clip-path:url(#SVGID_00000096046670597972098000000001112414577842734237_);}
	.st3{clip-path:url(#SVGID_00000059308836541672111570000013818598013837525409_);}
	.st4{fill:#0090C8;}
	.st5{fill:none;stroke:#FFFFFF;stroke-width:8.000000e-02;stroke-miterlimit:2.61;}
	.st6{fill:#FFFFFF;}
	.st7{fill:none;stroke:#FFFFFF;stroke-width:0.36;stroke-miterlimit:2.61;}
</style>
<g>
	<defs>
		<polyline id="SVGID_1_" points="52.1,66.1 296,66.1 296,205.9 52.1,205.9 52.1,66.1 		"/>
	</defs>
	<clipPath id="SVGID_00000128470553711981670000000003347116437036346498_">
		<use xlink:href="#SVGID_1_"  style="overflow:visible;"/>
	</clipPath>
	<g style="clip-path:url(#SVGID_00000128470553711981670000000003347116437036346498_);">
		<path class="st1" d="M69.8,66.1h208.5c9.2-0.1,16.8,7.3,17,16.5V189c-0.2,9.2-7.8,16.6-17,16.5H69.8c-9.2,0.1-16.8-7.3-17-16.5
			V82.7C52.9,73.4,60.5,66,69.8,66.1"/>
	</g>
</g>
<g>
	<defs>
		<path id="SVGID_00000067950327761536812530000006694220314138301343_" d="M69.8,66.1h208.5c9.2-0.1,16.8,7.3,17,16.5V189
			c-0.2,9.2-7.8,16.6-17,16.5H69.8c-9.2,0.1-16.8-7.3-17-16.5V82.7C52.9,73.4,60.5,66,69.8,66.1"/>
	</defs>
	<clipPath id="SVGID_00000176044292312813611430000003273520499127509909_">
		<use xlink:href="#SVGID_00000067950327761536812530000006694220314138301343_"  style="overflow:visible;"/>
	</clipPath>
	<g style="clip-path:url(#SVGID_00000176044292312813611430000003273520499127509909_);">
		<g>
			<defs>
				<polyline id="SVGID_00000152980507784924797470000012488808471321457328_" points="52.1,66.1 296,66.1 296,205.9 52.1,205.9 
					52.1,66.1 				"/>
			</defs>
			<clipPath id="SVGID_00000143579994236339514900000012537908812146447536_">
				<use xlink:href="#SVGID_00000152980507784924797470000012488808471321457328_"  style="overflow:visible;"/>
			</clipPath>
			<g style="clip-path:url(#SVGID_00000143579994236339514900000012537908812146447536_);">
				<path class="st4" d="M298.2,201c-75.1,2.2-155.9-72.9-246.7-38.1l-0.6-18.5c64.2-19.3,203.7,60.9,245.8,37.3L298.2,201"/>
				<path class="st4" d="M298.2,218.6c-75.4,2.2-155.6-71.4-246.7-36.6l-1.4-18c64.4-19.3,205.3,60.4,247.4,36.8L298.2,218.6"/>
				<path class="st4" d="M297.2,180.9c-75.5,2.2-154.9-72.9-246-38.1l1.1-17c64.4-19.3,202.8,59.4,245,35.8L297.2,180.9"/>
				<path class="st4" d="M297.4,161.6C222,163.9,141.7,90.2,50.7,125l-1.4-18c64.4-19.3,205.3,60.4,247.4,36.8L297.4,161.6"/>
				<path class="st4" d="M297.4,144.1c-75.2,2.2-156-72.9-246.7-38.1l-0.6-18.5c64.2-19.3,203.7,60.9,245.8,37.3L297.4,144.1"/>
				<path class="st4" d="M296.4,124c-75.5,2.2-154.9-72.9-246-38.1l1.1-17c64.4-19.3,202.8,59.4,245,35.8L296.4,124"/>
			</g>
		</g>
		<path class="st5" d="M289.1,108.4l-0.2,16.2v3h-4.7v-3l0.2-16.3h-4v-2.9h4v-2.7V102c0-0.2-0.2-0.4-0.3-0.6
			c-0.2-0.1-0.4-0.2-0.7-0.2h-2.7c-0.2,0-0.4,0.1-0.6,0.3c-0.2,0.1-0.3,0.3-0.4,0.5v0.8l-0.1,2.6h-4.3l0.1-5.8l0.1-0.5v-0.4
			c0.1-0.3,0.2-0.6,0.5-0.7c0.3-0.2,0.6-0.3,0.9-0.3h10.4c0.3,0,0.7,0.1,1,0.2c0.3,0.2,0.5,0.4,0.7,0.8l0.1,0.4v0.6l-0.1,5.7h3.8
			v2.9L289.1,108.4z M274,108.4h-4.5l0.4,1.2l0.3,1l0.2,1v1l-0.1,1.2c0,0.3-0.1,0.7-0.3,1h3.9L274,108.4z M265.5,127.6
			c-0.5,0-1.1-0.1-1.6-0.2c-0.5-0.1-1-0.3-1.4-0.6c-0.2-0.1-0.3-0.2-0.5-0.3c-0.2-0.2-0.4-0.4-0.6-0.7c-0.3-0.4-0.6-0.8-0.8-1.3
			c-0.3-0.6-0.4-1.2-0.6-1.8c-0.1-0.2-0.1-0.6-0.2-1.1s-0.1-0.9-0.1-1.3V118h-1.2h-0.5l-0.4-0.4l-0.3-0.5l-0.1-0.7
			c0-0.3,0-0.5,0.1-0.8l0.3-0.6l0.4-0.3l0.5-0.2h4.6c0.3,0,0.6,0,0.9-0.2c0.3-0.1,0.5-0.2,0.6-0.4c0.3-0.2,0.5-0.5,0.6-0.8l0.2-0.3
			c0.4-1.4,0.1-2.9-0.8-4l-0.3-0.4h-9.3v-2.9h27.4v2.9h-4l-0.2,16.3v2.9h-4.7v-3l0.1-6.9h-7.4l-0.7,0.2h-0.5h-0.8v2.1
			c0,0.4,0,0.8,0,1l0.2,0.9l0.4,1.3c0.1,0.3,0.3,0.6,0.6,0.8l0.8,0.4l1,0.1h3.5v2.9L265.5,127.6z M249.2,108.4l-0.2,16.2v3h-4.6v-3
			l0.2-16.3h-4v-2.9h4v-2.7V102c0-0.2-0.2-0.4-0.3-0.6c-0.2-0.1-0.4-0.2-0.7-0.2h-2.7c-0.2,0-0.4,0.1-0.6,0.3
			c-0.2,0.1-0.3,0.3-0.4,0.5v0.8l-0.1,2.6h-4.3l0.1-5.8l0.1-0.5v-0.4c0.1-0.3,0.2-0.5,0.5-0.7c0.3-0.2,0.6-0.3,0.9-0.3h10.4
			c0.3,0,0.7,0.1,1,0.2c0.3,0.2,0.5,0.4,0.7,0.8l0.1,0.4v0.6l-0.1,5.7h3.9v2.9L249.2,108.4z M234.3,108.4h-4.1l-0.1,7l0.1,1.4
			c0.1,0.3,0.2,0.6,0.3,0.9l0.5,0.6l0.7,0.3h0.3l0.3-0.1l0.3-0.2l0.4-0.2l0.6-0.5l0.5-0.6L234.3,108.4z M239,108.4l-0.2,16.3v3h-4.7
			v-3v-3.4H234l-0.1,0.1l-0.9,0.3h-2.1c-0.8,0-1.5-0.1-2.2-0.4c-0.7-0.3-1.3-0.8-1.8-1.4c-0.4-0.5-0.8-1.1-1-1.8
			c-0.2-0.7-0.4-1.4-0.4-2.2l0.1-7.5h-2.5v-2.9h19.2v2.9L239,108.4z M211.3,111.1v3h-2.5l-0.6,0.4l-0.4,0.3
			c-0.4,0.3-0.6,0.8-0.8,1.2c-0.2,0.5-0.3,1-0.3,1.5c0,0.4,0,0.7,0.2,1.1c0.1,0.3,0.3,0.6,0.6,0.9l0.5,0.5l0.5,0.3l0.9-0.4l1-0.6
			l1-0.8l0.8-0.9l0.1-9.4h-14v-2.9h22.6v2.9h-4l-0.2,16.3v2.9h-4.7v-3v-1.9h-0.1l0,0l-0.8,0.4l-0.7,0.2l-0.8,0.2H207
			c-0.3,0-0.6,0-0.9-0.1c-0.3-0.1-0.6-0.3-0.9-0.4c-0.5-0.4-1-0.8-1.5-1.3c-0.5-0.6-0.8-1.2-1.1-1.8c-0.1-0.3-0.2-0.6-0.2-0.7
			c-0.1-0.4-0.1-0.9-0.1-1.3c0-0.5,0.1-1,0.2-1.5c0.1-0.5,0.3-0.9,0.5-1.3l0.3-0.4l0.5-0.5l-3.8-0.1v-3L211.3,111.1z M191.5,130.3
			l-1.2-0.4c-0.9-0.4-1.8-1-2.6-1.6c-0.7-0.5-1.3-1.1-1.8-1.9l-0.8-1.6c-0.2-0.6-0.4-1.2-0.6-1.9l-0.3-2v-2.3l0.1-10.1h-2.6v-2.9
			h18.4v2.9h-2.9l-0.1,6.9v1.5c0,0.5,0,0.9,0,1.1c0,0.3-0.1,0.7-0.2,1l-0.5,0.9l-0.6,0.6L195,121l-0.9,0.5l-0.8,0.1h-1.5h-0.5
			l-0.4-0.2l-0.3-0.3l-0.2-0.5l-0.1-0.4v-0.3c0-0.2,0.1-0.4,0.2-0.6c0.2-0.2,0.4-0.4,0.6-0.5l0.8-0.6l0.4-0.4l0.2-0.3l0.1-0.6v-1.8
			l0.1-6.7h-3.6l-0.1,9.8v2c0,0.6,0.1,1.1,0.2,1.7l0.4,1.4c0.2,0.5,0.4,1,0.7,1.4c0.3,0.5,0.8,0.9,1.2,1.3c0.6,0.4,1.2,0.7,1.9,0.9
			l0.9,0.3l1.3,0.3l-0.8,3.4h-1.6L191.5,130.3z M175.3,108.4l-0.2,16.3v3h-4.7v-3l0.1-9.3h-4v1.8l-0.1,0.8l-0.4,0.6
			c-0.2,0.3-0.5,0.5-0.8,0.6l-1.1,0.2h-1.5c-0.3,0-0.7-0.1-1-0.2c-0.4-0.2-0.7-0.5-1-0.8c-0.2-0.2-0.3-0.4-0.4-0.6l-0.3-0.7
			c-0.2-0.5-0.2-1-0.2-1.5v-0.7l0.2-0.8c0.1-0.3,0.2-0.5,0.4-0.8c0.2-0.2,0.5-0.4,0.8-0.5l0.9-0.3l0.9-0.1h7.7v-3.9h-12.6v-2.9h21.3
			v2.9L175.3,108.4z M151.3,130.3l-1.2-0.4c-0.9-0.4-1.8-1-2.6-1.6c-0.7-0.5-1.3-1.1-1.8-1.9l-0.8-1.6c-0.2-0.6-0.4-1.2-0.6-1.9
			l-0.3-2v-2.3l0.1-10.1h-2.6v-2.9h18.3v2.9H157l-0.1,6.9v1.5c0,0.5,0,0.9,0,1.1c0,0.3-0.1,0.7-0.2,1l-0.5,0.9l-0.6,0.6l-0.8,0.6
			l-0.9,0.5l-0.8,0.1h-1.5h-0.4l-0.4-0.2l-0.3-0.3l-0.2-0.5l-0.1-0.4v-0.3c0-0.2,0.1-0.4,0.2-0.6c0.2-0.2,0.4-0.4,0.6-0.5l0.8-0.6
			l0.4-0.4l0.2-0.3l0.1-0.6v-1.8l0.1-6.7h-3.6l-0.1,9.8v2c0,0.6,0.1,1.1,0.2,1.7l0.3,1.4c0.2,0.5,0.4,1,0.7,1.4
			c0.3,0.5,0.8,0.9,1.3,1.3c0.6,0.4,1.2,0.7,1.9,0.9l0.9,0.3l1.3,0.3l-0.8,3.4h-1.5L151.3,130.3z"/>
		<path class="st6" d="M168.1,195.9h-12l7.4-25h-28.2l-7.4,25h-12l16.3-54.8h12L138,162h28.2l6.2-20.9h12L168.1,195.9z M215.3,160.3
			c1.4-6.3-1.9-9.9-10-10.7h-4l-5.9,19.9h4.4C208.5,168.9,213.6,165.8,215.3,160.3z M226.4,159.1c-1.2,5.1-3,8.9-5.6,11.3
			s-6.7,4.6-12.4,6.8c-5.2,1.2-10.5,1.8-15.9,1.8l-4.9,16.9h-12.2l16.5-54.8h12.4c4.9-0.5,9.8-0.1,14.6,1.1c4.8,2,7.6,4.2,8.4,6.7
			S227.8,154.7,226.4,159.1z M278.4,192.8c-6.5,2.7-13.5,4.2-20.6,4.4c-10.1,0-17.9-2.9-23.5-8.6c-5.6-5.7-7.2-12.7-4.8-20.8
			c2.3-7.8,8.1-14.4,17.4-19.9c8.4-5.1,18.1-7.9,28-7.9c3.2-0.1,6.5,0.2,9.6,0.8c2.9,0.7,5.7,1.7,8.3,3l-8.8,6.4
			c-1.9-1.1-6-1.6-12.4-1.6c-6.7,0.1-13.2,2-18.8,5.7c-6.1,3.8-9.9,8.4-11.5,13.6c-1.7,5.6-0.7,10.4,2.9,14.4s8.8,6,15.6,6
			c5.9,0,10.5-1,13.8-3.1L278.4,192.8z M108.2,196.8l-29.7-31.7l-9.3,31.5H55.9l17-57.3l29.3,31.4l13-43.3l-12.4,10l24.3-65.4
			l-8.7,46.9l15.5-9l-9,30.7l-4.5,15.3l-0.6,1.9l0,0L108.2,196.8z"/>
		<path class="st7" d="M168.1,195.9h-12l7.4-25h-28.2l-7.4,25h-12l16.3-54.8h12L138,162h28.2l6.2-20.9h12L168.1,195.9z M215.3,160.3
			c1.4-6.3-1.9-9.9-10-10.7h-4l-5.9,19.9h4.4C208.5,168.9,213.6,165.8,215.3,160.3z M226.4,159.1c-1.2,5.1-3,8.9-5.6,11.3
			s-6.7,4.6-12.4,6.8c-5.2,1.2-10.5,1.8-15.9,1.8l-4.9,16.9h-12.2l16.5-54.8h12.4c4.9-0.5,9.8-0.1,14.6,1.1c4.8,2,7.6,4.2,8.4,6.7
			S227.8,154.7,226.4,159.1z M278.4,192.8c-6.5,2.7-13.5,4.2-20.6,4.4c-10.1,0-17.9-2.9-23.5-8.6c-5.6-5.7-7.2-12.7-4.8-20.8
			c2.3-7.8,8.1-14.4,17.4-19.9c8.4-5.1,18.1-7.9,28-7.9c3.2-0.1,6.5,0.2,9.6,0.8c2.9,0.7,5.7,1.7,8.3,3l-8.8,6.4
			c-1.9-1.1-6-1.6-12.4-1.6c-6.7,0.1-13.2,2-18.8,5.7c-6.1,3.8-9.9,8.4-11.5,13.6c-1.7,5.6-0.7,10.4,2.9,14.4s8.8,6,15.6,6
			c5.9,0,10.5-1,13.8-3.1L278.4,192.8z M108.2,196.8l-29.7-31.7l-9.3,31.5H55.9l17-57.3l29.3,31.4l13-43.3l-12.4,10l24.3-65.4
			l-8.7,46.9l15.5-9l-9,30.7l-4.5,15.3l-0.6,1.9l0,0L108.2,196.8z"/>
		<path class="st6" d="M289.1,108.4l-0.2,16.2v3h-4.7v-3l0.2-16.3h-4v-2.9h4v-2.7V102c0-0.2-0.2-0.4-0.3-0.6
			c-0.2-0.1-0.4-0.2-0.7-0.2h-2.7c-0.2,0-0.4,0.1-0.6,0.3c-0.2,0.1-0.3,0.3-0.4,0.5v0.8l-0.1,2.6h-4.3l0.1-5.8l0.1-0.5v-0.4
			c0.1-0.3,0.2-0.6,0.5-0.7c0.3-0.2,0.6-0.3,0.9-0.3h10.4c0.3,0,0.7,0.1,1,0.2c0.3,0.2,0.5,0.4,0.7,0.8l0.1,0.4v0.6l-0.1,5.7h3.8
			v2.9L289.1,108.4z M274,108.4h-4.5l0.4,1.2l0.3,1l0.2,1v1l-0.1,1.2c0,0.3-0.1,0.7-0.3,1h3.9L274,108.4z M265.5,127.6
			c-0.5,0-1.1-0.1-1.6-0.2c-0.5-0.1-1-0.3-1.4-0.6c-0.2-0.1-0.3-0.2-0.5-0.3c-0.2-0.2-0.4-0.4-0.6-0.7c-0.3-0.4-0.6-0.8-0.8-1.3
			c-0.3-0.6-0.4-1.2-0.6-1.8c-0.1-0.2-0.1-0.6-0.2-1.1s-0.1-0.9-0.1-1.3V118h-1.2h-0.5l-0.4-0.4l-0.3-0.5l-0.1-0.7
			c0-0.3,0-0.5,0.1-0.8l0.3-0.6l0.4-0.3l0.5-0.2h4.6c0.3,0,0.6,0,0.9-0.2c0.3-0.1,0.5-0.2,0.6-0.4c0.3-0.2,0.5-0.5,0.6-0.8l0.2-0.3
			c0.4-1.4,0.1-2.9-0.8-4l-0.3-0.4h-9.3v-2.9h27.4v2.9h-4l-0.2,16.3v2.9h-4.7v-3l0.1-6.9h-7.4l-0.7,0.2h-0.5h-0.8v2.1
			c0,0.4,0,0.8,0,1l0.2,0.9l0.4,1.3c0.1,0.3,0.3,0.6,0.6,0.8l0.8,0.4l1,0.1h3.5v2.9L265.5,127.6z M249.2,108.4l-0.2,16.2v3h-4.6v-3
			l0.2-16.3h-4v-2.9h4v-2.7V102c0-0.2-0.2-0.4-0.3-0.6c-0.2-0.1-0.4-0.2-0.7-0.2h-2.7c-0.2,0-0.4,0.1-0.6,0.3
			c-0.2,0.1-0.3,0.3-0.4,0.5v0.8l-0.1,2.6h-4.3l0.1-5.8l0.1-0.5v-0.4c0.1-0.3,0.2-0.5,0.5-0.7c0.3-0.2,0.6-0.3,0.9-0.3h10.4
			c0.3,0,0.7,0.1,1,0.2c0.3,0.2,0.5,0.4,0.7,0.8l0.1,0.4v0.6l-0.1,5.7h3.9v2.9L249.2,108.4z M234.3,108.4h-4.1l-0.1,7l0.1,1.4
			c0.1,0.3,0.2,0.6,0.3,0.9l0.5,0.6l0.7,0.3h0.3l0.3-0.1l0.3-0.2l0.4-0.2l0.6-0.5l0.5-0.6L234.3,108.4z M239,108.4l-0.2,16.3v3h-4.7
			v-3v-3.4H234l-0.1,0.1l-0.9,0.3h-2.1c-0.8,0-1.5-0.1-2.2-0.4c-0.7-0.3-1.3-0.8-1.8-1.4c-0.4-0.5-0.8-1.1-1-1.8
			c-0.2-0.7-0.4-1.4-0.4-2.2l0.1-7.5h-2.5v-2.9h19.2v2.9L239,108.4z M211.3,111.1v3h-2.5l-0.6,0.4l-0.4,0.3
			c-0.4,0.3-0.6,0.8-0.8,1.2c-0.2,0.5-0.3,1-0.3,1.5c0,0.4,0,0.7,0.2,1.1c0.1,0.3,0.3,0.6,0.6,0.9l0.5,0.5l0.5,0.3l0.9-0.4l1-0.6
			l1-0.8l0.8-0.9l0.1-9.4h-14v-2.9h22.6v2.9h-4l-0.2,16.3v2.9h-4.7v-3v-1.9h-0.1l0,0l-0.8,0.4l-0.7,0.2l-0.8,0.2H207
			c-0.3,0-0.6,0-0.9-0.1c-0.3-0.1-0.6-0.3-0.9-0.4c-0.5-0.4-1-0.8-1.5-1.3c-0.5-0.6-0.8-1.2-1.1-1.8c-0.1-0.3-0.2-0.6-0.2-0.7
			c-0.1-0.4-0.1-0.9-0.1-1.3c0-0.5,0.1-1,0.2-1.5c0.1-0.5,0.3-0.9,0.5-1.3l0.3-0.4l0.5-0.5l-3.8-0.1v-3L211.3,111.1z M191.5,130.3
			l-1.2-0.4c-0.9-0.4-1.8-1-2.6-1.6c-0.7-0.5-1.3-1.1-1.8-1.9l-0.8-1.6c-0.2-0.6-0.4-1.2-0.6-1.9l-0.3-2v-2.3l0.1-10.1h-2.6v-2.9
			h18.4v2.9h-2.9l-0.1,6.9v1.5c0,0.5,0,0.9,0,1.1c0,0.3-0.1,0.7-0.2,1l-0.5,0.9l-0.6,0.6L195,121l-0.9,0.5l-0.8,0.1h-1.5h-0.5
			l-0.4-0.2l-0.3-0.3l-0.2-0.5l-0.1-0.4v-0.3c0-0.2,0.1-0.4,0.2-0.6c0.2-0.2,0.4-0.4,0.6-0.5l0.8-0.6l0.4-0.4l0.2-0.3l0.1-0.6v-1.8
			l0.1-6.7h-3.6l-0.1,9.8v2c0,0.6,0.1,1.1,0.2,1.7l0.4,1.4c0.2,0.5,0.4,1,0.7,1.4c0.3,0.5,0.8,0.9,1.2,1.3c0.6,0.4,1.2,0.7,1.9,0.9
			l0.9,0.3l1.3,0.3l-0.8,3.4h-1.6L191.5,130.3z M175.3,108.4l-0.2,16.3v3h-4.7v-3l0.1-9.3h-4v1.8l-0.1,0.8l-0.4,0.6
			c-0.2,0.3-0.5,0.5-0.8,0.6l-1.1,0.2h-1.5c-0.3,0-0.7-0.1-1-0.2c-0.4-0.2-0.7-0.5-1-0.8c-0.2-0.2-0.3-0.4-0.4-0.6l-0.3-0.7
			c-0.2-0.5-0.2-1-0.2-1.5v-0.7l0.2-0.8c0.1-0.3,0.2-0.5,0.4-0.8c0.2-0.2,0.5-0.4,0.8-0.5l0.9-0.3l0.9-0.1h7.7v-3.9h-12.6v-2.9h21.3
			v2.9L175.3,108.4z M151.3,130.3l-1.2-0.4c-0.9-0.4-1.8-1-2.6-1.6c-0.7-0.5-1.3-1.1-1.8-1.9l-0.8-1.6c-0.2-0.6-0.4-1.2-0.6-1.9
			l-0.3-2v-2.3l0.1-10.1h-2.6v-2.9h18.3v2.9H157l-0.1,6.9v1.5c0,0.5,0,0.9,0,1.1c0,0.3-0.1,0.7-0.2,1l-0.5,0.9l-0.6,0.6l-0.8,0.6
			l-0.9,0.5l-0.8,0.1h-1.5h-0.4l-0.4-0.2l-0.3-0.3l-0.2-0.5l-0.1-0.4v-0.3c0-0.2,0.1-0.4,0.2-0.6c0.2-0.2,0.4-0.4,0.6-0.5l0.8-0.6
			l0.4-0.4l0.2-0.3l0.1-0.6v-1.8l0.1-6.7h-3.6l-0.1,9.8v2c0,0.6,0.1,1.1,0.2,1.7l0.3,1.4c0.2,0.5,0.4,1,0.7,1.4
			c0.3,0.5,0.8,0.9,1.3,1.3c0.6,0.4,1.2,0.7,1.9,0.9l0.9,0.3l1.3,0.3l-0.8,3.4h-1.5L151.3,130.3z"/>
	</g>
</g>
</svg>
